<svg xmlns="http://www.w3.org/2000/svg"><symbol viewBox="0 0 150 30" id="icon-startapp-logo-text"><title>startapp-logo-text</title><path d="M6.8 25.9" fill="#373839"/><path d="M12.9 15.9c1.5 1.9 2.2 4 2.2 6.5 0 .8-.1 1.5-.2 2.1-.2.6-.4 1.2-.6 1.6-.2.5-.5.9-.8 1.2-.3.4-.6.7-.9.9-1.4 1.1-3.1 1.7-5.1 1.7-1 0-1.9-.1-2.7-.4-.8-.3-1.6-.7-2.2-1.3-.3-.2-.6-.5-.8-.9-.5-.3-.8-.7-1-1.2-.2-.5-.4-1-.6-1.7-.1-.5-.2-1.2-.2-2.1 0-.6.2-1.2.7-1.6.4-.4 1-.7 1.6-.7.7 0 1.2.2 1.6.7.4.4.6 1 .6 1.6 0 .4 0 .7.1 1.1.1.4.2.7.4 1 .2.3.5.5.9.7.4.2.9.3 1.6.3.4 0 .9-.1 1.3-.2s.7-.3 1-.5c.6-.5.9-1.3.9-2.4 0-.8-.1-1.4-.3-2-.2-.6-.5-1.1-.9-1.6-.5-.4-1-.9-1.5-1.3-.6-.4-1.2-.9-1.9-1.4-.7-.4-1.3-.9-1.9-1.4-.6-.5-1.2-1-1.8-1.7-.7-.8-1.1-1.6-1.5-2.5C.5 9.5.4 8.6.4 7.6v-.8c0-.4.1-.9.2-1.4.1-.5.3-1.1.6-1.6.3-.6.6-1.1 1.1-1.7.4-.5 1.1-.9 1.9-1.4.9-.5 2-.7 3.3-.7 1.4 0 2.5.2 3.3.7.8.5 1.4.9 1.9 1.4.5.6.8 1.2 1.1 1.8.2.6.4 1.2.5 1.8.1.5.1 1 .1 1.4s-.1.6-.1.7c-.1.5-.2.8-.5 1.1-.2.3-.5.5-.8.7-.3.2-.8.2-1.4.1-.6-.1-1-.3-1.2-.5-.3-.3-.4-.5-.5-.8-.2-.3-.2-.6-.2-.8v-.8s0-.4-.1-.6c0-.2-.1-.4-.2-.6s0-.4-.2-.5c-.3-.4-.8-.6-1.7-.6-.7 0-1.1.1-1.4.3-.3.1-.4.3-.5.3-.2.2-.3.4-.4.6-.1.3-.2.5-.2.7-.1.2-.1.4-.1.6v.6c0 .5.1 1 .3 1.4.1.3.4.7.7 1 .3.4.7.7 1.2 1.1.5.4 1 .8 1.6 1.2.7.5 1.4 1 2.2 1.6.7.6 1.3 1.3 2 2zM32.3.6c.4.4.7 1 .7 1.6 0 .6-.2 1.2-.7 1.6-.4.4-1 .7-1.6.7H27v23.2c0 .6-.3 1.1-.8 1.5-.4.4-.9.8-1.5.8s-1.1-.3-1.5-.8c-.4-.4-.8-.9-.8-1.5V4.5h-3.8c-.6 0-1.2-.2-1.6-.7-.4-.4-.7-1-.7-1.6 0-.6.2-1.2.7-1.6.4-.4 1-.6 1.6-.6h12c.8 0 1.3.2 1.7.6zM47 27.3c.1.6 0 1.2-.3 1.7s-.8.8-1.4 1h-.4c-.5 0-1-.2-1.4-.5-.4-.3-.7-.8-.8-1.3l-.8-3.8h-4l-.9 3.8c-.1.5-.4 1-.8 1.3-.4.3-.9.5-1.4.5h-.4c-.6-.1-1.1-.4-1.4-1-.3-.5-.4-1.1-.3-1.7l5-25.5v-.2c.1-.2.2-.4.3-.5h.1c.2-.2.3-.3.5-.3h.1c.1 0 .2-.1.3-.1.1 0 .2 0 .3-.1h.2c.1 0 .2 0 .3.1.1 0 .2 0 .3.1h.1c.2.1.4.2.5.3h.1c.2.2.3.3.3.5.9.1.9.2.9.2l5 25.5zM39.8 9.8l-1.5 9h3l-1.5-9zM65.3 26.8c.3.6.3 1.1.1 1.7-.2.6-.6 1-1.2 1.2-.3.1-.6.2-.9.2-.4 0-.8-.1-1.2-.4s-.7-.6-.9-1L57 18.8h-2.2v9c0 .6-.2 1.2-.7 1.6-.4.4-1 .7-1.6.7-.6 0-1.2-.2-1.6-.7-.4-.4-.7-1-.7-1.6V2.2c0-.6.2-1.2.7-1.6.4-.4 1-.7 1.6-.7h5.4c.9 0 1.9.3 2.7.8S62.2 2 62.9 3c1.1 1.8 1.7 4.2 1.7 6.5 0 1.1-.1 2.2-.4 3.2-.3 1-.7 2-1.3 2.8-.3.4-.5.7-.8 1l-.8.8 4 9.5zm-7.4-12.6c.1 0 .3-.1.5-.2s.5-.4.7-.8c.3-.5.6-1.1.7-1.7.2-.6.2-1.3.2-1.9 0-.6-.1-1.7-.2-2.3-.2-.6-.4-1.2-.7-1.7-.3-.4-.5-.6-.7-.8s-.4-.2-.5-.2h-3.2v9.8h3.2z" fill="#373839"/><path d="M113.2 3.1c.6.9 1 1.8 1.3 2.8.3 1 .4 2.4.4 3.5s-.1 2.2-.4 3.2-.7 2-1.3 2.8c-.7 1-1.4 1.8-2.3 2.3-.9.6-1.8.8-2.7.8H105v9c0 .6-.2 1.2-.7 1.6-.4.4-1 .7-1.6.7-.6 0-1.2-.2-1.6-.7-.4-.4-.7-1-.7-1.6V2.3c0-.4.1-.8.3-1.1s.5-.6.8-.8c.4-.2.8-.3 1.2-.3h5.4c.9 0 1.9.3 2.7.8 1 .4 1.7 1.2 2.4 2.2zm-3.8 10c.3-.5.5-1.1.7-1.7.2-.6.3-1.3.3-1.9s-.1-1.6-.3-2.3c-.2-.6-.4-1.2-.7-1.7-.3-.4-.5-.6-.7-.8-.2-.2-.4-.2-.5-.2H105v9.7h3.1c.1 0 .3-.1.5-.2.3-.2.5-.5.8-.9zM97.5 27.3c.1.6 0 1.2-.3 1.7s-.8.8-1.4 1h-.4c-.5 0-1-.2-1.4-.5-.4-.3-.7-.8-.8-1.3l-.8-3.8h-4l-.8 3.8c-.1.5-.4 1-.8 1.3-.4.3-.9.5-1.4.5H85c-.6-.1-1.1-.4-1.4-1-.3-.5-.4-1.1-.3-1.7l5-25.5v-.2c.1-.2.2-.4.3-.5h.1c.2-.2.3-.3.5-.3h.1c.1 0 .2-.1.3-.1.1 0 .2 0 .3-.1h.2c.1 0 .2 0 .3.1.1 0 .2 0 .3.1h.1c.2.1.4.2.5.3h.1c.2.2.3.3.3.5s.1.3.1.3l5.7 25.4zM90.2 9.8l-1.5 9h3l-1.5-9z" fill="#F16862"/><path d="M131.6 27.7c.3 0 .6.1.8.3.2.2.3.5.3.8 0 .3-.1.6-.3.8-.2.2-.5.3-.8.3-.3 0-.6-.1-.8-.3-.2-.2-.3-.5-.3-.8 0-.3.1-.6.3-.8.2-.2.5-.3.8-.3zM141.3 23.2c.3.4.5.8.6 1.2.1.5.4 1 .4 1.5s-.2 1-.3 1.5c-.1.5-.3.9-.6 1.2-.3.4-.6.8-1 1-.4.2-.8.3-1.2.3h-2.4c-.3 0-.5-.1-.7-.3-.2-.2-.4-.4-.4-.7V17.5c0-.3.2-.4.4-.6.2-.2.4-.3.7-.3h2.1c.4 0 .8.1 1.1.3.4.2.7.5.9.9.2.3.4.7.5 1.1.1.4.3.8.3 1.2 0 .4-.1.9-.2 1.3s-.3.8-.5 1.1c0 .3.1.4.3.7zm-3.7-1.4h1.1s.1 0 .2-.1.1-.1.2-.3c.1-.2.2-.3.3-.6.1-.2.1-.5.1-.7 0-.2 0-.5-.1-.7-.1-.2-.1-.4-.3-.6-.1-.1-.2-.2-.2-.3-.1-.1-.1-.1-.2-.1h-1.1v3.4zm1.5 6.1c.1 0 .2 0 .3-.1.1-.1.2-.2.3-.4l.3-.6c.1-.2.1-.6.1-1 0-.3 0-.6-.1-.8l-.3-.6c-.1-.2-.2-.3-.3-.4-.1-.1-.2-.1-.3-.1h-1.4l.1 4.1h1.3zM150 26.9v.6c-.1.2-.1.5-.3.8-.1.3-.3.5-.5.8-.2.2-.5.4-.9.6-.4.2-.9.3-1.5.3s-1.1-.1-1.4-.3c-.4-.2-.6-.4-.8-.6-.2-.2-.4-.5-.5-.8-.1-.3-.2-.5-.3-.8-.1-.3-.1-.5-.1-.7v-6.9c0-.7.1-1.2.3-1.6.2-.4.5-.7.7-1 .6-.5 1.3-.8 2.1-.8s1.5.3 2.1.8c.2.2.5.5.7 1 .2.4.3 1 .3 1.7 0 .3-.1.5-.3.7-.2.2-.4.3-.7.3-.3 0-.5-.1-.7-.3-.2-.2-.3-.4-.3-.7 0-.3 0-.5-.1-.7-.1-.2-.2-.3-.3-.4-.1-.1-.2-.2-.4-.2-.1 0-.3-.1-.4-.1h-.3c-.1 0-.2.1-.4.2s-.2.2-.3.4c-.1.2-.3.4-.3.7V27c0 .1.4.7.5.7l.2.2c.1.1.3.1.6.1s.5 0 .6-.1c.1-.1.2-.1.2-.2.1-.1.1-.2.2-.3 0-.1.1-.2.1-.3v-.5l-.1-1.6h-.7c-.3 0-.5-.2-.7-.4-.2-.2-.3-.4-.3-.7 0-.3.1-.5.3-.7.2-.2.4-.2.7-.2h2.7v3.7c.3 0 .3 0 .3.2z" fill="#373839"/><path d="M131.2 3.1c.6.9 1 1.8 1.3 2.8.3 1 .4 2.4.4 3.5s-.1 2.2-.4 3.2-.7 2-1.3 2.8c-.7 1-1.4 1.8-2.3 2.3-.9.6-1.8.8-2.7.8H123v9c0 .6-.2 1.2-.7 1.6-.4.4-1 .7-1.6.7-.6 0-1.2-.2-1.6-.7-.4-.4-.7-1-.7-1.6V2.3c0-.4.1-.8.3-1.1s.5-.6.8-.8c.4-.2.8-.3 1.2-.3h5.4c.9 0 1.9.3 2.7.8 1 .4 1.7 1.2 2.4 2.2zm-3.8 10c.3-.5.5-1.1.7-1.7.2-.6.3-1.3.3-1.9s-.1-1.6-.3-2.3c-.2-.6-.4-1.2-.7-1.7-.3-.4-.5-.6-.7-.8-.2-.2-.4-.2-.5-.2H123v9.7h3.1c.1 0 .3-.1.5-.2.3-.2.5-.5.8-.9z" fill="#F16862"/><path d="M83.3.6c.4.4.7 1 .7 1.6 0 .6-.2 1.2-.7 1.6s-1 .7-1.6.7H78v23.2c0 .6-.3 1.1-.8 1.5-.4.4-.9.8-1.5.8s-1.1-.3-1.5-.8c-.4-.4-.8-.9-.8-1.5V4.5h-3.8c-.6 0-1.2-.2-1.6-.7-.4-.4-.7-1-.7-1.6 0-.6.2-1.2.7-1.6.4-.4 1-.6 1.6-.6h12c.8 0 1.3.2 1.7.6z" fill="#373839"/></symbol><symbol viewBox="0 0 100 110" id="icon-startapp-logo"><title>startapp-logo</title><path d="M81 79.9s-10-3-12-3c2-1 3.3-5.9 3-8-1-8-8-9-8-9s-2 0-3 1c1 2 1 4 1 6 0 3-1 6-3 8 1-2 1-3.8 1-6 0-6.1-4.2-11-10-11s-10 4.9-10 11c0 2.2 0 4 1 6-2-2-3-5-3-8 0-2 0-4 1-6-1-1-3-1-3-1s-7 1.1-8 9c-.3 2.1 1 7 3 8-2 0-12 3-12 3h62z" fill="#CDCCCC"/><path d="M60 42L52 3c-.1-1-.9-2-2-2s-1.9 1-2 2l-8 39 6-4.9L41 57l4-7 2-13 3 16 3-16 2 13 4 7-5-20 6 5zm-8.5-16.1h-3c-.3 0-.5-.2-.4-.5l1.5-6c.2-.9.6-.9.8 0l1.5 6c0 .3-.1.5-.4.5z" fill="#ff6860"/><path d="M4.5 107.2" fill="#373839"/><path d="M8.6 100.5c1 1.2 1.5 2.7 1.5 4.3 0 .5-.1 1-.2 1.4-.1.4-.2.8-.4 1.1-.2.3-.3.6-.5.8l-.6.6c-.9.8-2.1 1.1-3.4 1.1-.7 0-1.3-.1-1.8-.3-.6-.2-1.1-.5-1.5-.9-.2-.1-.4-.3-.6-.6-.2-.2-.4-.5-.5-.8-.2-.3-.3-.7-.4-1.1-.1-.4-.2-.9-.2-1.4 0-.4.1-.8.4-1.1.3-.3.6-.4 1.1-.4.4 0 .8.1 1.1.4.3.3.4.6.4 1.1 0 .2 0 .5.1.7 0 .2.1.5.3.7.1.2.3.4.6.5.3.1.6.2 1 .2.3 0 .6 0 .8-.1.3-.1.5-.2.7-.3.4-.4.6-.9.6-1.6 0-.5-.1-1-.2-1.4-.1-.4-.3-.7-.6-1.1-.3-.3-.6-.6-1-.9-.4-.3-.8-.6-1.3-.9-.4-.3-.9-.6-1.3-.9-.4-.3-.8-.7-1.2-1.1-.4-.5-.8-1.1-1-1.7-.2-.6-.3-1.2-.3-1.9v-.5c0-.3 0-.6.1-.9.1-.3.2-.7.4-1.1.2-.4.4-.8.8-1.1.3-.3.7-.6 1.3-.9.6-.3 1.3-.4 2.2-.4.9 0 1.6.2 2.2.5.5.3 1 .6 1.2.9.3.4.6.8.7 1.2.2.4.3.8.3 1.2 0 .4.1.7 0 .9s0 .4 0 .5c-.1.3-.2.6-.3.8-.1.2-.3.3-.5.5-.2.1-.5.1-.9.1-.4-.1-.6-.2-.8-.4-.2-.2-.3-.4-.4-.5-.1-.2-.1-.4-.1-.5v-1c0-.1-.1-.3-.1-.4s-.1-.2-.2-.4c-.1-.3-.5-.5-1.1-.5-.4 0-.8.1-.9.2-.2.1-.3.2-.3.2-.1.1-.2.2-.3.4-.1.2-.1.3-.1.5 0 .1-.1.3-.1.4V94.9c0 .3.1.6.2.9.1.3.3.5.5.8.2.2.5.5.8.7.3.2.7.5 1.1.8.5.3.9.7 1.4 1.1.4.4.9.8 1.3 1.3zM21.6 90.4c.3.3.4.6.4 1.1 0 .4-.1.8-.4 1.1s-.6.4-1.1.4H18v15.5c0 .4-.2.7-.5 1-.3.3-.6.5-1 .5s-.7-.2-1-.5c-.3-.3-.5-.6-.5-1V92.9h-2.5c-.4 0-.8-.1-1.1-.4-.3-.3-.4-.6-.4-1.1 0-.4.1-.8.4-1.1.3-.3.6-.4 1.1-.4h8c.4 0 .8.2 1.1.5zM31.3 108.1c.1.4 0 .8-.2 1.1s-.5.6-1 .6h-.3c-.3 0-.7-.1-.9-.3-.3-.2-.5-.5-.5-.9l-.5-2.5h-2.7l-.5 2.5c-.1.4-.2.6-.5.9-.3.2-.6.3-.9.3H23c-.4-.1-.7-.3-1-.6-.2-.3-.3-.7-.2-1.1l3.3-17V91c0-.1.1-.2.2-.4.1-.1.2-.2.4-.2h.1c.1 0 .2-.1.2-.1h.5c.1 0 .1 0 .2.1s.2.1.4.2h.1c.1.1.2.2.2.4v.2l3.9 16.9zm-4.8-11.7l-1 6h2l-1-6zM43.5 107.8c.2.4.2.8 0 1.1-.2.4-.4.7-.8.8-.2.1-.4.1-.6.1-.3 0-.5-.1-.8-.2s-.4-.4-.6-.7l-2.8-6.6h-1.5v6c0 .4-.1.8-.4 1.1-.3.3-.6.4-1.1.4-.4 0-.8-.1-1.1-.4-.3-.3-.4-.6-.4-1.1v-17c0-.4.1-.8.4-1.1.3-.3.6-.4 1.1-.4h3.6c.6 0 1.2.2 1.8.5s1.1.9 1.5 1.5c.8 1.2 1.1 2.8 1.1 4.3 0 .7-.1 1.4-.3 2.1-.2.7-.5 1.3-.8 1.9-.2.2-.3.5-.5.7-.2.2-.4.4-.5.6l2.7 6.4zm-4.9-8.4c.1 0 .2-.1.3-.2s.3-.3.5-.6.4-.7.5-1.1c.1-.4.2-.8.2-1.3 0-.4-.1-1.1-.2-1.5-.1-.4-.3-.8-.5-1.1-.2-.2-.3-.4-.5-.5s-.3-.2-.3-.2h-2.1v6.5h2.1z" fill="#373839"/><path d="M75.4 92c.4.6.6 1.2.8 1.9.2.7.3 1.6.3 2.4s-.1 1.4-.3 2.1-.5 1.3-.8 1.9c-.4.7-.9 1.2-1.5 1.5-.6.4-1.2.6-1.8.6H70v6c0 .4-.1.8-.4 1.1-.3.3-.6.4-1.1.4-.4 0-.8-.1-1.1-.4-.3-.3-.4-.6-.4-1.1v-17c0-.3.1-.5.2-.8s.3-.4.5-.5c.2-.1.5-.2.8-.2h3.6c.6 0 1.2.2 1.8.5.6.4 1.1 1 1.5 1.6zm-2.5 6.7c.2-.3.4-.7.5-1.1.1-.4.2-.8.2-1.3s-.1-1.1-.2-1.5c-.1-.4-.3-.8-.5-1.1-.2-.2-.3-.4-.5-.5-.1-.1-.3-.2-.3-.2H70v6.5h2.1c.1 0 .2-.1.3-.2.2-.1.3-.3.5-.6zM65 108.1c.1.4 0 .8-.2 1.1s-.5.6-1 .6h-.3c-.3 0-.7-.1-.9-.3-.3-.2-.5-.5-.5-.9l-.5-2.5h-2.7l-.5 2.5c-.1.4-.2.6-.5.9-.3.2-.6.3-.9.3h-.3c-.4-.1-.7-.3-1-.6-.2-.3-.3-.7-.2-1.1l3.3-17V91c0-.1.1-.2.2-.4.1-.1.2-.2.4-.2h.1c.1 0 .2-.1.2-.1h.5c.1 0 .1 0 .2.1s.2.1.4.2h.1c.1.1.2.2.2.4v.2l3.9 16.9zm-4.9-11.7l-1 6h2l-1-6z" fill="#ff6860"/><path d="M87.8 108.4c.2 0 .4.1.5.2.1.1.2.3.2.5s-.1.4-.2.5c-.1.1-.3.2-.5.2s-.4-.1-.5-.2c-.1-.1-.2-.3-.2-.5s.1-.4.2-.5c.1-.1.2-.2.5-.2zM94.2 105.4c.2.2.3.5.4.8.1.3.3.7.3 1 0 .3-.1.7-.2 1-.1.3-.2.6-.4.8-.2.3-.4.5-.7.7-.3.2-.5.2-.8.2h-1.6c-.2 0-.3-.1-.5-.2-.1-.1-.3-.3-.3-.5v-7.7c0-.2.1-.2.3-.4.1-.1.3-.2.5-.2h1.4c.3 0 .5.1.8.2.2.1.4.3.6.6.2.2.3.5.3.7.1.3.2.5.2.8 0 .3-.1.6-.2.9-.1.3-.2.5-.3.7 0 .3.1.4.2.6zm-2.5-.9h.8s.1 0 .1-.1l.2-.2c.1-.1.1-.2.2-.4 0-.2.1-.3.1-.5s0-.3-.1-.5c0-.1-.1-.3-.2-.4l-.2-.2-.1-.1h-.8v2.4zm1 4.1c.1 0 .1 0 .2-.1s.2-.1.2-.3c.1-.1.1-.3.2-.4v-.6c0-.2 0-.4-.1-.5 0-.2-.1-.3-.2-.4-.1-.1-.1-.2-.2-.3-.1-.1-.1-.1-.2-.1h-.9v2.7h1zM100 107.9v.4c0 .2-.1.3-.2.5s-.2.4-.3.5c-.1.1-.3.3-.6.4-.3.1-.6.2-1 .2s-.7-.1-1-.2c-.2-.1-.4-.3-.6-.4-.2-.2-.3-.3-.3-.5-.1-.2-.1-.4-.2-.5 0-.2-.1-.3-.1-.4v-4.6c0-.5.1-.8.2-1.1.2-.3.3-.5.5-.6.4-.4.8-.5 1.4-.5.5 0 1 .2 1.4.5.2.2.3.4.5.6.2.3.2.6.2 1.1 0 .2-.1.4-.2.5-.1.1-.3.2-.5.2s-.3-.1-.5-.2c-.1-.1-.2-.3-.2-.5s0-.3-.1-.5c0-.1-.1-.2-.2-.3-.1-.1-.2-.1-.2-.1h-.5c-.1 0-.2.1-.2.1s-.1.2-.2.3c-.1.1-.2.3-.2.5v4.7c0 .1.3.4.3.5l.1.1c.1 0 .2.1.4.1s.3 0 .4-.1c.1-.1.1-.1.2-.1.1-.1.1-.1.1-.2s.1-.1.1-.2V106.7h-.4c-.2 0-.3-.1-.5-.3-.1-.1-.2-.3-.2-.5s.1-.3.2-.5c.1-.1.3-.1.5-.1h1.8v2.5c.1-.1.1 0 .1.1z" fill="#373839"/><path d="M87.4 92c.4.6.6 1.2.8 1.9.2.7.3 1.6.3 2.4s-.1 1.4-.3 2.1-.5 1.3-.8 1.9c-.4.7-.9 1.2-1.5 1.5-.6.4-1.2.6-1.8.6H82v6c0 .4-.1.8-.4 1.1-.3.3-.6.4-1.1.4-.4 0-.8-.1-1.1-.4-.3-.3-.4-.6-.4-1.1v-17c0-.3.1-.5.2-.8s.3-.4.5-.5c.2-.1.5-.2.8-.2h3.6c.6 0 1.2.2 1.8.5.6.4 1.1 1 1.5 1.6zm-2.5 6.7c.2-.3.4-.7.5-1.1.1-.4.2-.8.2-1.3s-.1-1.1-.2-1.5c-.1-.4-.3-.8-.5-1.1-.2-.2-.3-.4-.5-.5-.1-.1-.3-.2-.3-.2H82v6.5h2.1c.1 0 .2-.1.3-.2.2-.1.3-.3.5-.6z" fill="#ff6860"/><path d="M55.6 90.4c.3.3.4.6.4 1.1 0 .4-.1.8-.4 1.1s-.6.4-1.1.4H52v15.5c0 .4-.2.7-.5 1-.3.3-.6.5-1 .5s-.7-.2-1-.5c-.3-.3-.5-.6-.5-1V92.9h-2.5c-.4 0-.8-.1-1.1-.4-.3-.3-.4-.6-.4-1.1 0-.4.1-.8.4-1.1.3-.3.6-.4 1.1-.4h8c.4 0 .8.2 1.1.5z" fill="#373839"/></symbol></svg>